<svg width="334" height="133" viewBox="0 0 334 133" fill="none" xmlns="http://www.w3.org/2000/svg">
<g clip-path="url(#clip0)">
<path d="M56.4382 37.0832C56.4382 49.0165 47.6244 58.367 36.3787 58.367H15.2542V16.1851H36.3787C47.4399 16.1851 56.4382 25.5607 56.4382 37.0832ZM56.7317 66.9375C66.3841 59.8513 71.6924 49.2597 71.6924 37.0832C71.6924 16.6379 55.8512 0 36.3787 0H0V132.735H15.2542V74.5521H35.8504C46.4001 74.5521 54.6603 83.6509 54.6603 95.2656V132.726H69.9146V95.2656C69.9146 83.2903 65.6042 74.0154 56.7317 66.9375Z" fill="#09A8DD"/>
<path d="M97.1693 0H81.915V132.735H97.1693V0Z" fill="#09A8DD"/>
<path d="M250.307 16.1851V0H187.512V132.735H250.307V116.549H202.766V74.5521H246.743V58.367H202.766V16.1851H250.307Z" fill="#09A8DD"/>
<path d="M334 36.5213V0H318.746V36.5213C318.746 48.5721 309.504 58.367 298.15 58.367H277.554V0H262.299V132.735H277.554V74.5521H298.15C309.504 74.5521 318.746 84.3554 318.746 96.3978V132.726H334V96.3978C334 84.4896 328.222 73.2942 318.519 66.3673C328.222 59.4404 334 48.3121 334 36.5213Z" fill="#09A8DD"/>
<path d="M131.728 66.3841C120.055 52.849 109.253 37.3599 109.161 16.1768H124.424C124.524 31.5652 133.288 44.0688 142.336 54.5094L131.728 66.3841Z" fill="#09A8DD"/>
<path d="M152.979 66.3505C164.702 79.9443 175.512 95.2237 175.512 116.549H160.258C160.165 101.153 151.41 88.6658 142.362 78.2167L152.979 66.3505Z" fill="#09A8DD"/>
<path opacity="0.3" d="M131.728 66.3841C120.055 52.849 109.253 37.3599 109.161 16.1768H124.424C124.524 31.5652 133.288 44.0688 142.336 54.5094L131.728 66.3841Z" fill="white"/>
<path opacity="0.3" d="M152.979 66.3505C164.702 79.9443 175.512 95.2237 175.512 116.549H160.258C160.165 101.153 151.41 88.6658 142.362 78.2167L152.979 66.3505Z" fill="white"/>
<path d="M153.515 65.7551C165.029 52.3122 175.52 36.9322 175.52 15.9335V0H109.17V16.1851H160.266C160.174 31.3219 151.687 43.6662 142.806 54.0062L130.479 67.7929C119.242 81.0429 109.17 96.2216 109.17 116.801V132.735H175.52V116.549H124.424C124.516 101.765 132.617 89.6386 141.272 79.4411L153.515 65.7551Z" fill="#09A8DD"/>
</g>
<defs>
<clipPath id="clip0">
<rect width="334" height="132.73" fill="white"/>
</clipPath>
</defs>
</svg>
