<?xml version="1.0" encoding="utf-8"?>
<!-- Generator: Adobe Illustrator 24.1.0, SVG Export Plug-In . SVG Version: 6.00 Build 0)  -->
<svg version="1.1" id="Layer_1" xmlns="http://www.w3.org/2000/svg" xmlns:xlink="http://www.w3.org/1999/xlink" x="0px" y="0px"
	 viewBox="0 0 870.26 145.57" style="enable-background:new 0 0 870.26 145.57;" xml:space="preserve">
<style type="text/css">
	.st0{fill:#2C3E50;}
</style>
<g>
	<g>
		<path class="st0" d="M98.18,38.82v74.85h-5.82l-0.69-16.22c-3.33,5.54-7.83,9.89-13.51,13.03c-5.68,3.14-12.04,4.71-19.06,4.71
			c-11,0-20.14-3.72-27.44-11.16c-7.3-7.44-10.95-16.7-10.95-27.79s3.65-20.35,10.95-27.79c7.3-7.44,16.45-11.16,27.44-11.16
			c7.02,0,13.38,1.59,19.06,4.78c5.68,3.19,10.19,7.55,13.51,13.1l0.97-16.36H98.18z M75.79,104.38c4.85-2.77,8.64-6.63,11.37-11.57
			c2.73-4.94,4.09-10.46,4.09-16.56c0-9.33-3-17.05-9.01-23.15c-6.01-6.1-13.58-9.15-22.73-9.15s-16.75,3.07-22.8,9.22
			c-6.05,6.15-9.08,13.84-9.08,23.08c0,9.24,3.03,16.93,9.08,23.08c6.05,6.15,13.65,9.22,22.8,9.22
			C65.51,108.54,70.94,107.15,75.79,104.38z"/>
		<path class="st0" d="M190.5,48.38c7.21,7.39,10.81,16.68,10.81,27.86c0,11.18-3.6,20.47-10.81,27.86
			c-7.21,7.39-16.31,11.09-27.31,11.09c-6.84,0-13.05-1.52-18.64-4.57c-5.59-3.05-10.1-7.25-13.51-12.61v42.14h-6.79V38.82h4.99
			l1.39,16.36c3.42-5.54,7.97-9.91,13.65-13.1c5.68-3.19,11.99-4.78,18.92-4.78C174.19,37.29,183.29,40.99,190.5,48.38z
			 M185.51,99.39c6.01-6.1,9.01-13.81,9.01-23.15s-3-17.05-9.01-23.15c-6.01-6.1-13.63-9.15-22.87-9.15
			c-9.06,0-16.63,3.07-22.73,9.22c-6.1,6.15-9.15,13.84-9.15,23.08c0,9.24,3.05,16.93,9.15,23.08c6.1,6.15,13.68,9.22,22.73,9.22
			C171.88,108.54,179.5,105.49,185.51,99.39z"/>
		<path class="st0" d="M287.25,48.38c7.21,7.39,10.81,16.68,10.81,27.86c0,11.18-3.6,20.47-10.81,27.86
			c-7.21,7.39-16.31,11.09-27.31,11.09c-6.84,0-13.05-1.52-18.64-4.57c-5.59-3.05-10.1-7.25-13.51-12.61v42.14h-6.79V38.82h4.99
			l1.39,16.36c3.42-5.54,7.97-9.91,13.65-13.1c5.68-3.19,11.99-4.78,18.92-4.78C270.94,37.29,280.04,40.99,287.25,48.38z
			 M282.26,99.39c6.01-6.1,9.01-13.81,9.01-23.15s-3-17.05-9.01-23.15c-6.01-6.1-13.63-9.15-22.87-9.15
			c-9.06,0-16.63,3.07-22.73,9.22c-6.1,6.15-9.15,13.84-9.15,23.08c0,9.24,3.05,16.93,9.15,23.08c6.1,6.15,13.68,9.22,22.73,9.22
			C268.63,108.54,276.25,105.49,282.26,99.39z"/>
		<path class="st0" d="M316.92,13.73h8.46v9.56h-8.46V13.73z M317.75,38.82h6.79v74.85h-6.79V38.82z"/>
		<path class="st0" d="M386.78,107.29v6.38h-9.01c-7.3,0-13.05-2.13-17.26-6.38s-6.31-10.07-6.31-17.46V45.06h-12.48v-1.52
			l18.02-17.88H361v13.17h25.23v6.24H361v44.63c0,5.64,1.52,9.98,4.57,13.03c3.05,3.05,7.39,4.57,13.03,4.57H386.78z"/>
		<path class="st0" d="M404.52,108.54c-5.54-4.62-8.41-10.81-8.59-18.57h15.11c0.18,3.79,1.73,6.72,4.64,8.8
			c2.91,2.08,6.72,3.12,11.44,3.12c2.77,0,5.24-0.37,7.42-1.11c2.17-0.74,3.9-1.85,5.2-3.33s1.94-3.23,1.94-5.27
			c0-1.39-0.32-2.61-0.97-3.67c-0.65-1.06-1.43-1.92-2.36-2.56c-0.92-0.65-2.24-1.25-3.95-1.8c-1.71-0.55-3.23-0.97-4.57-1.25
			s-3.12-0.6-5.34-0.97c-2.31-0.37-4.16-0.69-5.54-0.97c-1.39-0.28-3.14-0.72-5.27-1.32s-3.86-1.25-5.2-1.94
			c-1.34-0.69-2.8-1.59-4.37-2.7s-2.8-2.36-3.67-3.74c-0.88-1.39-1.62-3.07-2.22-5.06s-0.9-4.18-0.9-6.58
			c0-6.75,2.66-12.2,7.97-16.36c5.31-4.16,12.31-6.24,21-6.24s15.66,2.17,20.93,6.51c5.27,4.34,7.95,10.17,8.04,17.47H440.7
			c-0.09-3.51-1.43-6.21-4.02-8.11c-2.59-1.89-6.15-2.84-10.67-2.84c-4.25,0-7.62,0.83-10.12,2.5c-2.49,1.66-3.74,3.83-3.74,6.51
			c0,1.11,0.18,2.08,0.55,2.91c0.37,0.83,0.99,1.57,1.87,2.22c0.88,0.65,1.71,1.18,2.5,1.59c0.79,0.42,1.96,0.81,3.53,1.18
			s2.86,0.65,3.88,0.83c1.02,0.19,2.49,0.42,4.44,0.69l5.61,1.04c1.25,0.23,3.03,0.65,5.34,1.25c2.31,0.6,4.11,1.22,5.41,1.87
			c1.29,0.65,2.8,1.55,4.5,2.7c1.71,1.15,3,2.45,3.88,3.88c0.88,1.43,1.64,3.21,2.29,5.34c0.65,2.13,0.97,4.44,0.97,6.93
			c0,7.3-2.77,13.12-8.32,17.46c-5.54,4.34-12.89,6.51-22.04,6.51S410.07,113.16,404.52,108.54z"/>
		<path class="st0" d="M473.14,11.37h15.94v15.8h-15.94V11.37z M473.41,38.82h15.39v74.85h-15.39V38.82z"/>
		<path class="st0" d="M613.55,45.19c4.9,5.36,7.35,12.34,7.35,20.93v47.54h-15.39v-43.8c0-3.97-0.58-7.39-1.73-10.26
			s-2.82-5.04-4.99-6.51c-2.17-1.48-4.78-2.22-7.83-2.22c-5.08,0-9.29,2.06-12.61,6.17c-3.33,4.11-4.99,9.36-4.99,15.73v40.89
			h-15.11v-43.8c0-6.1-1.25-10.79-3.74-14.07c-2.5-3.28-6.1-4.92-10.81-4.92c-4.99,0-9.17,2.06-12.54,6.17s-5.06,9.36-5.06,15.73
			v40.89H510.7V38.82h10.95l2.63,9.7c2.86-3.6,6.33-6.4,10.4-8.39c4.07-1.99,8.36-2.98,12.89-2.98c4.99,0,9.43,1.16,13.31,3.47
			c3.88,2.31,6.93,5.5,9.15,9.56c2.68-4.07,6.19-7.25,10.54-9.56c4.34-2.31,8.96-3.47,13.86-3.47
			C602.27,37.15,608.65,39.83,613.55,45.19z"/>
		<path class="st0" d="M701.85,42.08c5.91,3.37,10.53,8.06,13.86,14.07c3.33,6.01,4.99,12.71,4.99,20.1
			c0,11.27-3.67,20.63-11.02,28.07c-7.35,7.44-16.61,11.16-27.79,11.16c-9.61,0-17.88-3-24.81-9.01v34.1h-15.39V38.82h10.4
			l2.91,9.15c7.21-7.3,16.17-10.95,26.89-10.95C689.28,37.02,695.93,38.7,701.85,42.08z M698.24,93.78
			c4.62-4.67,6.93-10.51,6.93-17.53c0-7.02-2.31-12.87-6.93-17.53c-4.62-4.67-10.44-7-17.47-7c-4.62,0-8.82,1.06-12.61,3.19
			c-3.79,2.13-6.72,5.06-8.8,8.8s-3.12,7.92-3.12,12.54c0,7.02,2.31,12.87,6.93,17.53c4.62,4.67,10.47,7,17.53,7
			C687.78,100.78,693.62,98.44,698.24,93.78z"/>
		<path class="st0" d="M737.2,11.93h15.39v101.74H737.2V11.93z"/>
		<path class="st0" d="M845.31,81.51H784.6c0.92,6.01,3.44,10.77,7.55,14.28s9.22,5.27,15.32,5.27c2.96,0,5.73-0.44,8.32-1.32
			c2.59-0.88,4.88-2.13,6.86-3.74c1.99-1.62,3.63-3.58,4.92-5.89h16.22c-2.96,7.95-7.67,14.16-14.14,18.64
			c-6.47,4.48-13.86,6.72-22.18,6.72c-11,0-20.17-3.74-27.51-11.23c-7.35-7.48-11.02-16.82-11.02-28c0-11.18,3.67-20.51,11.02-28
			c7.35-7.48,16.52-11.23,27.51-11.23c7.49,0,14.14,1.78,19.96,5.34c5.82,3.56,10.3,8.32,13.45,14.28
			c3.14,5.96,4.71,12.54,4.71,19.75C845.59,77.77,845.5,79.48,845.31,81.51z M792.85,55.73c-4.02,3.23-6.68,7.67-7.97,13.31h45.33
			c-0.92-3.79-2.45-7.05-4.57-9.77s-4.74-4.81-7.83-6.24c-3.1-1.43-6.54-2.15-10.33-2.15C801.74,50.88,796.87,52.49,792.85,55.73z"
			/>
	</g>
</g>
</svg>
